# xmcd
#
# Track frame offsets:
#	150
#	14542
#	28370
#	73357
#	89127
#	104677
#	138105
#	165855
#
# Disc length: 2783 seconds
#
# Revision: 1
# Processed by: cddbd v1.5.1PL0 Copyright (c) Steve Scherf et al.
# Submitted via: EasyCDDAExtractor 7.0.6.1
#
DISCID=710add08
DTITLE=Canadian and Chicago Staffband - Festival Of Brass disc 1
DYEAR=1996
DGENRE=Gospel
TTITLE0=Mighty To Save
TTITLE1=Victory Parade
TTITLE2=Pavilions Of Praise
TTITLE3=Sing And Be Not Silent
TTITLE4=Quick Silver (David Robertson and Peggy Thomas)
TTITLE5=None Other Name
TTITLE6=Long White Robe
TTITLE7=Sing Praises
EXTD=
EXTT0=
EXTT1=
EXTT2=
EXTT3=
EXTT4=
EXTT5=
EXTT6=
EXTT7=
PLAYORDER=
